<?xml version="1.0" encoding="utf-8"?>
<!-- Generator: Adobe Illustrator 19.0.0, SVG Export Plug-In . SVG Version: 6.00 Build 0)  -->
<svg version="1.1" id="Layer_1" xmlns="http://www.w3.org/2000/svg" xmlns:xlink="http://www.w3.org/1999/xlink" x="0px" y="0px"
	 viewBox="0 0 26.2 22.5" style="enable-background:new 0 0 26.2 22.5;" xml:space="preserve">
<style type="text/css">
	.st0{fill:#0D1912;}
</style>
<g id="XMLID_1067_">
	<g id="XMLID_1074_">
		<path id="XMLID_2405_" class="st0" d="M4,3.6v15.4c0,0.2,0.2,0.4,0.4,0.4s0.4-0.2,0.4-0.4V3.6c0-0.2-0.2-0.4-0.4-0.4S4,3.4,4,3.6z
			"/>
		<path id="XMLID_1983_" class="st0" d="M17.4,3.9c0-0.1-0.1-0.3-0.2-0.3c-3.6-2.1-8-2.1-11.5,0C5.6,3.6,5.5,3.7,5.5,3.9
			c0,2.5,0,5.1,0,7.6c0,0.1,0.1,0.2,0.2,0.1c1.3-0.8,2.7-1.2,4.1-1.4V6.7c0-0.5,0.4-0.9,0.9-0.9c0.4,0,0.7,0.2,0.8,0.5
			c0.1-0.1,0.1-0.1,0.2-0.2c1.7-1,3.7-1.6,5.7-1.6C17.4,4.4,17.4,4.1,17.4,3.9z"/>
		<path id="XMLID_1979_" class="st0" d="M11,22.2V10V6.7c0-0.2-0.2-0.4-0.4-0.4c-0.2,0-0.4,0.2-0.4,0.4V10v12.1
			c0,0.2,0.2,0.4,0.4,0.4C10.8,22.5,11,22.4,11,22.2z"/>
		<path id="XMLID_1978_" class="st0" d="M23.5,14.7c0.1,0,0.1,0,0.1-0.1c0-2.5,0-5.1,0-7.6c0-0.1-0.1-0.3-0.2-0.3
			c-1.8-1-3.8-1.6-5.8-1.6c-0.1,0-0.2,0-0.3,0c-1.9,0-3.8,0.6-5.5,1.6c-0.1,0.1-0.2,0.2-0.2,0.3c0,1,0,2,0,3c0,1.5,0,3,0,4.6
			c0,0.1,0,0.1,0.1,0.1c0,0,0.1,0,0.1,0c1.8-1,3.8-1.6,5.8-1.6C19.6,13.1,21.6,13.6,23.5,14.7C23.4,14.6,23.5,14.7,23.5,14.7z"/>
	</g>
</g>
</svg>
