<?xml version="1.0" encoding="utf-8"?>
<!-- Generator: Adobe Illustrator 19.0.0, SVG Export Plug-In . SVG Version: 6.00 Build 0)  -->
<svg version="1.1" id="Layer_1" xmlns="http://www.w3.org/2000/svg" xmlns:xlink="http://www.w3.org/1999/xlink" x="0px" y="0px"
	 viewBox="0 0 65 69" style="enable-background:new 0 0 65 69;" xml:space="preserve">
<style type="text/css">
	.st0{fill:#0D1912;}
	.st1{fill:#1A793D;}
	.st2{fill:#FFFFFF;}
</style>
<g id="XMLID_10545_">
	<circle id="XMLID_10554_" class="st0" cx="32.9" cy="35.6" r="28.1"/>
	<circle id="XMLID_10553_" class="st1" cx="32.9" cy="33.9" r="28.1"/>
	<path id="XMLID_10546_" class="st2" d="M32.4,53.2c5.9,0,11.2-2.7,14.8-6.9c2.9-3.4,4.6-7.7,4.6-12.5c0-10.7-8.7-19.4-19.4-19.4
		c-6.7,0-12.6,3.4-16.1,8.6c-2.1,3.1-3.3,6.8-3.3,10.8C13.1,44.6,21.7,53.2,32.4,53.2z M49.9,35.6C49.9,35.6,49.9,35.6,49.9,35.6
		c-0.1,1.8-0.6,3.5-1.3,5.1c-0.2,0.5-0.5,1-0.7,1.5c0,0,0,0,0,0L42.8,43l-2,0.3l-3.2-4.2L37.5,39l2.1-6.5l5.1-1.7L49.9,35.6z
		 M33.3,21.3l6.1-3.4c0,0,0,0,0,0c2,0.9,3.8,2.1,5.3,3.7c0.2,0.2,0.4,0.5,0.7,0.7c0,0,0,0,0,0l-1.4,6.9l-5.3,1.7l-5.5-4L33.3,21.3
		L33.3,21.3z M36.2,40.3l3.2,4.1l-2.7,6.4c0,0,0,0,0,0c-1.4,0.3-2.8,0.5-4.2,0.5c-1.4,0-2.9-0.2-4.2-0.5c0,0,0,0,0,0l-2.7-6.4
		l3.2-4.1H36.2L36.2,40.3z M20,21.5c1.5-1.5,3.3-2.8,5.3-3.7c0,0,0,0,0,0l6.1,3.4v5.5l-5.2,3.8L26,30.8l-5.3-1.7l-0.6-3.2l-0.7-3.7
		c0,0,0,0,0,0C19.6,21.9,19.8,21.7,20,21.5z M17,42.2c-0.3-0.5-0.5-1-0.7-1.5c-0.7-1.6-1.1-3.3-1.3-5.1c0,0,0,0,0,0l5.2-4.8l5.1,1.7
		l2.1,6.5l-3.3,4.3L17,42.2C17,42.2,17,42.2,17,42.2z"/>
</g>
</svg>
